Coordinates
version=1
nRows=13
nColumns=22
inDegrees=yes

Units are S.I. units (second, meters, Newtons, ...)
If the header above contains a line with 'inDegrees', this indicates whether rotational values are in degrees (yes) or radians (no).

endheader
time	pelvis_tilt	pelvis_list	pelvis_rotation	pelvis_tx	pelvis_ty	pelvis_tz	hip_flexion_r	hip_adduction_r	hip_rotation_r	knee_angle_r	ankle_angle_r	subtalar_angle_r	hip_flexion_l	hip_adduction_l	hip_rotation_l	knee_angle_l	ankle_angle_l	subtalar_angle_l	lumbar_extension	lumbar_bending	lumbar_rotation
      2.83000000	      3.28102721	     -4.55155496	      1.14371204	     -0.57765171	      1.08040594	     -0.29419035	      0.34406931	      8.97976463	     -4.39411463	    -12.50423964	     10.25570194	     -3.96615227	     17.36656016	     -5.58027421	      3.82464221	    -54.38968991	      7.34482142	      2.17664262	     -8.62415500	      2.06623664	     -1.46905093
      2.84000000	      3.30991351	     -4.33050549	      0.91345514	     -0.56937842	      1.08063932	     -0.29347096	     -0.24838036	      8.79397089	     -4.07678100	    -12.40641744	     10.56434113	     -3.99428168	     17.86274951	     -5.38609480	      3.57849746	    -52.78237352	      7.90757217	      2.16416131	     -8.70199417	      1.77320923	     -1.19231021
      2.85000000	      3.31489768	     -4.13006729	      0.69565055	     -0.56106507	      1.08072335	     -0.29280983	     -0.79782374	      8.62010382	     -3.81330369	    -12.33852441	     10.89206005	     -4.02000051	     18.33545035	     -5.24039133	      3.25975507	    -51.05629510	      8.42560254	      2.20115858	     -8.74621796	      1.50809671	     -0.93862969
      2.86000000	      3.33704944	     -3.95047576	      0.49420809	     -0.55269030	      1.08073041	     -0.29222274	     -1.36517239	      8.46139248	     -3.57716082	    -12.27211812	     11.21632920	     -4.05027175	     18.73555076	     -5.13968259	      2.86642393	    -49.21646721	      8.87488826	      2.27005902	     -8.80281952	      1.27327584	     -0.70085105
      2.87000000	      3.29511062	     -3.78613691	      0.30261282	     -0.54429680	      1.08052258	     -0.29169512	     -1.84307183	      8.31033796	     -3.37249334	    -12.24314233	     11.58591689	     -4.06563488	     19.16413640	     -5.07385093	      2.39406200	    -47.29306963	      9.20865502	      2.33841324	     -8.78200093	      1.05862148	     -0.47082153
      2.88000000	      3.28448797	     -3.63541638	      0.12866580	     -0.53582490	      1.08027070	     -0.29124845	     -2.37110477	      8.16967010	     -3.16043538	    -12.18722651	     11.93663887	     -4.08531888	     19.50377039	     -5.04104511	      1.82914135	    -45.27620341	      9.43785461	      2.42781405	     -8.78995084	      0.86767980	     -0.25952689
      2.89000000	      3.28205807	     -3.50049218	     -0.02382132	     -0.52729508	      1.07992793	     -0.29088974	     -2.90948370	      8.03938879	     -2.97496995	    -12.12963402	     12.28937551	     -4.10532227	     19.78964784	     -5.03966396	      1.16137389	    -43.18863866	      9.54293223	      2.52597122	     -8.80105234	      0.70205740	     -0.07518292
      2.90000000	      3.31004231	     -3.37996166	     -0.15040604	     -0.51869671	      1.07953322	     -0.29061304	     -3.49287853	      7.92086539	     -2.80143133	    -12.05134047	     12.62621954	     -4.12756995	     19.99442896	     -5.05919896	      0.39755237	    -41.03619183	      9.54842311	      2.62882959	     -8.84424376	      0.55838352	      0.07113696
      2.91000000	      3.28210549	     -3.25969505	     -0.27348362	     -0.51008748	      1.07893864	     -0.29042846	     -3.98417763	      7.79208469	     -2.67387426	    -12.03334258	     13.01028716	     -4.14383660	     20.22474251	     -5.08359248	     -0.49436374	    -38.84984254	      9.41743617	      2.73586739	     -8.82256093	      0.42242797	      0.22155184
      2.92000000	      3.23646333	     -3.12889540	     -0.37920440	     -0.50142991	      1.07822623	     -0.29036458	     -4.45050351	      7.64464796	     -2.56693497	    -12.02906456	     13.40832622	     -4.15949723	     20.42970586	     -5.08368047	     -1.48873407	    -36.62548605	      9.17925467	      2.85926339	     -8.77592423	      0.28426616	      0.35086056
      2.93000000	      3.18706174	     -2.98709967	     -0.47024316	     -0.49273840	      1.07742554	     -0.29040641	     -4.90196072	      7.47925050	     -2.48370087	    -12.04605219	     13.80840068	     -4.17522088	     20.59573841	     -5.05150190	     -2.57674038	    -34.37377180	      8.82311990	      3.01084630	     -8.72501283	      0.13890246	      0.46249082
      2.94000000	      3.11539581	     -2.82834975	     -0.54633443	     -0.48401920	      1.07650723	     -0.29059077	     -5.31207146	      7.28718309	     -2.43792088	    -12.09631814	     14.23447228	     -4.18866240	     20.74605434	     -4.96584504	     -3.73155464	    -32.11213226	      8.38144729	      3.19581898	     -8.64784120	     -0.01569614	      0.56602915
      2.95000000	      3.07393549	     -2.65518898	     -0.60786733	     -0.47526407	      1.07557584	     -0.29092941	     -5.74252716	      7.07028917	     -2.42347076	    -12.16974023	     14.63896259	     -4.19699717	     20.81908477	     -4.81935264	     -4.92605560	    -29.84459068	      7.86023837	      3.44196535	     -8.60689229	     -0.17360501	      0.65541982
